<svg width="24" height="25" viewBox="0 0 24 25" fill="none" xmlns="http://www.w3.org/2000/svg">
<g clip-path="url(#clip0_2570_669)">
<path d="M12 24.5C18.6274 24.5 24 19.1274 24 12.5C24 5.87258 18.6274 0.5 12 0.5C5.37258 0.5 0 5.87258 0 12.5C0 19.1274 5.37258 24.5 12 24.5Z" fill="#767DFF"/>
<path fill-rule="evenodd" clip-rule="evenodd" d="M10.327 5.375H13.672C13.7879 5.37494 13.9018 5.40576 14.0018 5.46429C14.1019 5.52281 14.1845 5.60694 14.2413 5.708L19.4208 14.9473C19.4753 15.0446 19.5039 15.1544 19.5039 15.266C19.5039 15.3776 19.4753 15.4874 19.4208 15.5848L17.7633 18.5413C17.7067 18.6423 17.6242 18.7265 17.5243 18.7852C17.4244 18.8439 17.3106 18.8748 17.1948 18.875H6.80427C6.68829 18.875 6.5744 18.8441 6.47435 18.7854C6.37429 18.7267 6.29168 18.6425 6.23502 18.5413L4.57827 15.5848C4.52375 15.4874 4.49512 15.3776 4.49512 15.266C4.49512 15.1544 4.52375 15.0446 4.57827 14.9473L9.75777 5.708C9.81453 5.60694 9.89718 5.52281 9.99723 5.46429C10.0973 5.40576 10.2111 5.37494 10.327 5.375ZM11.9995 9.05075L8.50977 15.266H15.4893L11.9995 9.05075Z" fill="white"/>
</g>
<defs>
<clipPath id="clip0_2570_669">
<rect width="24" height="24" fill="white" transform="translate(0 0.5)"/>
</clipPath>
</defs>
</svg>
