<svg width="1440" height="5314" viewBox="0 0 1440 5314" fill="none" xmlns="http://www.w3.org/2000/svg">
<g filter="url(#filter0_f_248_453)">
<ellipse cx="709" cy="501.5" rx="800" ry="1176.5" fill="url(#paint0_radial_248_453)" fill-opacity="0.9"/>
</g>
<g filter="url(#filter1_f_248_453)">
<ellipse cx="1115" cy="1997.5" rx="800" ry="1176.5" fill="url(#paint1_radial_248_453)" fill-opacity="0.9"/>
</g>
<g filter="url(#filter2_f_248_453)">
<ellipse cx="295" cy="4644.5" rx="800" ry="1176.5" fill="url(#paint2_radial_248_453)" fill-opacity="0.9"/>
</g>
<g opacity="0.4">
<path d="M277.243 346.746L189.06 328.739L160.241 133.226L277.243 346.746Z" stroke="#5C6BB8"/>
<circle cx="161.638" cy="134.656" r="4" transform="rotate(-44.3272 161.638 134.656)" fill="#1E68F6"/>
<circle cx="276.535" cy="346.738" r="4" transform="rotate(-44.3272 276.535 346.738)" fill="#1E68F6"/>
<circle cx="189.06" cy="328.739" r="4" transform="rotate(-44.3272 189.06 328.739)" fill="#1E68F6"/>
</g>
<g opacity="0.4">
<path d="M1057.82 3336.77L1060.93 3276.01L1188.68 3236.96L1057.82 3336.77Z" stroke="#5C6BB8" stroke-width="0.675931"/>
<circle cx="1187.86" cy="3238.04" r="2.70372" transform="rotate(37.0608 1187.86 3238.04)" fill="#1E68F6"/>
<circle cx="1057.76" cy="3336.29" r="2.70372" transform="rotate(37.0608 1057.76 3336.29)" fill="#1E68F6"/>
<circle cx="1060.93" cy="3276.01" r="2.70372" transform="rotate(37.0608 1060.93 3276.01)" fill="#1E68F6"/>
</g>
<g opacity="0.4">
<path d="M511.578 4263.2L455.344 4239.98L461.176 4106.53L511.578 4263.2Z" stroke="#5C6BB8" stroke-width="0.675931"/>
<circle cx="461.921" cy="4107.66" r="2.70372" transform="rotate(-33.4401 461.921 4107.66)" fill="#1E68F6"/>
<circle cx="511.11" cy="4263.1" r="2.70372" transform="rotate(-33.4401 511.11 4263.1)" fill="#1E68F6"/>
<circle cx="455.344" cy="4239.98" r="2.70372" transform="rotate(-33.4401 455.344 4239.98)" fill="#1E68F6"/>
</g>
<g opacity="0.6">
<path d="M1342.4 357.558L1239.12 238.301L1307.28 185.599L1342.4 357.558Z" stroke="#5C6BB8" stroke-width="0.720849"/>
<circle cx="1307.94" cy="186.881" r="2.8834" transform="rotate(-27.1495 1307.94 186.881)" fill="#F9AA4B"/>
<circle cx="1341.92" cy="357.402" r="2.8834" transform="rotate(-27.1495 1341.92 357.402)" fill="#F9AA4B"/>
<circle cx="1237.93" cy="237.672" r="2.8834" transform="rotate(-27.1495 1237.93 237.672)" fill="#F9AA4B"/>
</g>
<g opacity="0.6">
<path d="M1270.85 1482.15L1117.05 1447.02L1140.86 1364.22L1270.85 1482.15Z" stroke="#5C6BB8" stroke-width="0.720849"/>
<circle cx="1142.15" cy="1364.87" r="2.8834" transform="rotate(-63.3903 1142.15 1364.87)" fill="#F9AA4B"/>
<circle cx="1270.37" cy="1482.31" r="2.8834" transform="rotate(-63.3903 1270.37 1482.31)" fill="#F9AA4B"/>
<circle cx="1115.71" cy="1447.22" r="2.8834" transform="rotate(-63.3903 1115.71 1447.22)" fill="#F9AA4B"/>
</g>
<g opacity="0.6">
<path d="M1059.04 2838.84L1157.88 2937.45L1101.12 2988.36L1059.04 2838.84Z" stroke="#5C6BB8" stroke-width="0.637989"/>
<circle cx="1100.46" cy="2987.27" r="2.55196" transform="rotate(148.676 1100.46 2987.27)" fill="#F9AA4B"/>
<circle cx="1059.48" cy="2838.94" r="2.55196" transform="rotate(148.676 1059.48 2838.94)" fill="#F9AA4B"/>
<circle cx="1158.98" cy="2937.93" r="2.55196" transform="rotate(148.676 1158.98 2937.93)" fill="#F9AA4B"/>
</g>
<g opacity="0.6">
<path d="M140.647 4130.56L266.6 4070.3L295.644 4140.8L140.647 4130.56Z" stroke="#5C6BB8" stroke-width="0.637989"/>
<circle cx="294.394" cy="4141.06" r="2.55196" transform="rotate(78.1748 294.394 4141.06)" fill="#F9AA4B"/>
<circle cx="140.894" cy="4130.18" r="2.55196" transform="rotate(78.1748 140.894 4130.18)" fill="#F9AA4B"/>
<circle cx="267.417" cy="4069.42" r="2.55196" transform="rotate(78.1748 267.417 4069.42)" fill="#F9AA4B"/>
</g>
<g opacity="0.6">
<path d="M972.601 469.962L1106.49 386.527L1056.94 316.046L972.601 469.962Z" stroke="#5C6BB8" stroke-width="0.720849"/>
<circle cx="2.8834" cy="2.8834" r="2.8834" transform="matrix(-0.715361 -0.698755 -0.698755 0.715361 1060.01 317.03)" fill="#30E0A1"/>
<circle cx="2.8834" cy="2.8834" r="2.8834" transform="matrix(-0.715361 -0.698755 -0.698755 0.715361 977.189 469.909)" fill="#30E0A1"/>
<circle cx="2.8834" cy="2.8834" r="2.8834" transform="matrix(-0.715361 -0.698755 -0.698755 0.715361 1111.9 386.231)" fill="#30E0A1"/>
</g>
<g opacity="0.6">
<path d="M748.15 1024.61L856.166 1028.03L854.757 969.027L748.15 1024.61Z" stroke="#5C6BB8" stroke-width="0.493797"/>
<circle cx="1.97519" cy="1.97519" r="1.97519" transform="matrix(-0.206752 -0.978393 -0.978393 0.206752 856.131 970.755)" fill="#30E0A1"/>
<circle cx="1.97519" cy="1.97519" r="1.97519" transform="matrix(-0.206752 -0.978393 -0.978393 0.206752 750.783 1026.33)" fill="#30E0A1"/>
<circle cx="1.97519" cy="1.97519" r="1.97519" transform="matrix(-0.206752 -0.978393 -0.978393 0.206752 859.358 1029.92)" fill="#30E0A1"/>
</g>
<defs>
<filter id="filter0_f_248_453" x="-115" y="-699" width="1648" height="2401" filterUnits="userSpaceOnUse" color-interpolation-filters="sRGB">
<feFlood flood-opacity="0" result="BackgroundImageFix"/>
<feBlend mode="normal" in="SourceGraphic" in2="BackgroundImageFix" result="shape"/>
<feGaussianBlur stdDeviation="12" result="effect1_foregroundBlur_248_453"/>
</filter>
<filter id="filter1_f_248_453" x="291" y="797" width="1648" height="2401" filterUnits="userSpaceOnUse" color-interpolation-filters="sRGB">
<feFlood flood-opacity="0" result="BackgroundImageFix"/>
<feBlend mode="normal" in="SourceGraphic" in2="BackgroundImageFix" result="shape"/>
<feGaussianBlur stdDeviation="12" result="effect1_foregroundBlur_248_453"/>
</filter>
<filter id="filter2_f_248_453" x="-529" y="3444" width="1648" height="2401" filterUnits="userSpaceOnUse" color-interpolation-filters="sRGB">
<feFlood flood-opacity="0" result="BackgroundImageFix"/>
<feBlend mode="normal" in="SourceGraphic" in2="BackgroundImageFix" result="shape"/>
<feGaussianBlur stdDeviation="12" result="effect1_foregroundBlur_248_453"/>
</filter>
<radialGradient id="paint0_radial_248_453" cx="0" cy="0" r="1" gradientUnits="userSpaceOnUse" gradientTransform="translate(709 411.167) rotate(90) scale(951.833 647.23)">
<stop offset="0.03125" stop-color="#010950"/>
<stop offset="1" stop-color="#0E1120" stop-opacity="0"/>
</radialGradient>
<radialGradient id="paint1_radial_248_453" cx="0" cy="0" r="1" gradientUnits="userSpaceOnUse" gradientTransform="translate(1115 1907.17) rotate(90) scale(951.833 647.23)">
<stop offset="0.03125" stop-color="#010950"/>
<stop offset="1" stop-color="#0E1120" stop-opacity="0"/>
</radialGradient>
<radialGradient id="paint2_radial_248_453" cx="0" cy="0" r="1" gradientUnits="userSpaceOnUse" gradientTransform="translate(295 4554.17) rotate(90) scale(951.833 647.23)">
<stop offset="0.03125" stop-color="#010950"/>
<stop offset="1" stop-color="#0E1120" stop-opacity="0"/>
</radialGradient>
</defs>
</svg>
