<svg width="24" height="25" viewBox="0 0 24 25" fill="none" xmlns="http://www.w3.org/2000/svg">
<g clip-path="url(#clip0_2570_614)">
<circle cx="12" cy="12.5" r="12" fill="#F3BA2F"/>
<path d="M8.89267 11.2233L12 8.116L15.1088 11.2247L16.9168 9.41667L12 4.5L7.0848 9.4152L8.89274 11.2232L8.89267 11.2233ZM4 12.5L5.80806 10.6917L7.616 12.4996L5.80794 14.3077L4 12.5ZM8.89267 13.7769L12 16.884L15.1087 13.7754L16.9177 15.5824L16.9168 15.5834L12 20.5L7.0848 15.5848L7.08224 15.5822L8.89286 13.7767L8.89267 13.7769ZM16.384 12.5008L18.1921 10.6927L20 12.5006L18.192 14.3087L16.384 12.5008Z" fill="white"/>
<path d="M13.8334 12.4992H13.8341L11.9996 10.6646L10.6437 12.0202L10.4879 12.176L10.1666 12.4974L10.1641 12.4999L10.1666 12.5025L11.9996 14.3358L13.8343 12.5011L13.8352 12.5001L13.8335 12.4992" fill="white"/>
</g>
<defs>
<clipPath id="clip0_2570_614">
<rect width="24" height="23.9999" fill="white" transform="translate(0 0.5)"/>
</clipPath>
</defs>
</svg>
