<svg width="24" height="25" viewBox="0 0 24 25" fill="none" xmlns="http://www.w3.org/2000/svg">
<g clip-path="url(#clip0_2570_592)">
<circle cx="12" cy="12.5" r="12" fill="#7F6EE9"/>
<path d="M12.2665 3.52556V3.53408C12.275 3.57668 12.275 3.6278 12.275 3.67892V9.82172C12.2665 9.8558 12.2409 9.86432 12.2154 9.88136C12.0365 9.96655 11.8661 10.0432 11.6872 10.1199C11.4401 10.2307 11.1845 10.3499 10.9374 10.4607L10.0428 10.8697C9.79575 10.9804 9.54868 11.0912 9.31012 11.2019C9.02045 11.3382 8.72225 11.466 8.43258 11.6024C8.1855 11.7131 7.93843 11.8324 7.68283 11.9432C7.47836 12.0369 7.27388 12.1221 7.07792 12.2158C7.06088 12.2243 7.04384 12.2328 7.02681 12.2328C7.01829 12.2328 7.01829 12.2328 7.00977 12.2243L7.2398 11.8409C7.68283 11.1082 8.11734 10.384 8.56038 9.65132C9.02897 8.8675 9.50608 8.08367 9.97467 7.29985C10.4092 6.57566 10.8522 5.85147 11.2867 5.12729C11.602 4.59906 11.9257 4.07083 12.2409 3.5426C12.2495 3.52556 12.258 3.51704 12.258 3.5H12.2665C12.258 3.50852 12.2665 3.51704 12.2665 3.52556Z" fill="#F3F3F3"/>
<path d="M17.4963 12.2245L17.5048 12.233L16.2524 12.9742L12.3162 15.3002C12.2992 15.3087 12.2821 15.3172 12.2736 15.3257C12.248 15.3257 12.248 15.3002 12.248 15.2916V15.215V9.9497C12.248 9.92414 12.248 9.89006 12.2566 9.8645C12.2651 9.83042 12.2906 9.83894 12.3162 9.84746C12.427 9.89858 12.5462 9.9497 12.657 10.0008C12.9893 10.1542 13.3215 10.3075 13.6538 10.4524C13.9435 10.5802 14.2246 10.7165 14.5143 10.8443C14.804 10.9721 15.0937 11.1084 15.3833 11.2362C15.6304 11.347 15.886 11.4662 16.1331 11.577C16.3802 11.6877 16.6358 11.807 16.8828 11.9178C17.0788 12.003 17.2747 12.0967 17.4707 12.1819C17.4707 12.2075 17.4792 12.216 17.4963 12.2245Z" fill="#8A8DA7"/>
<path d="M12.2655 20.6162C12.2655 20.6248 12.257 20.6333 12.257 20.6418H12.2485C12.2485 20.6248 12.2314 20.6162 12.2229 20.5992C11.6947 19.858 11.1665 19.1082 10.6382 18.367C10.1015 17.6087 9.55622 16.842 9.01947 16.0837C8.49976 15.351 7.97153 14.6098 7.45182 13.877C7.3155 13.6811 7.17919 13.4937 7.04287 13.2977C7.03435 13.2807 7.02583 13.2721 7.00879 13.2466C7.03435 13.2466 7.05139 13.2636 7.05991 13.2721C7.80113 13.7067 8.53384 14.1412 9.27506 14.5757C10.127 15.0783 10.9705 15.581 11.8225 16.0837L12.257 16.3393C12.274 16.3563 12.274 16.3734 12.274 16.3904V20.497C12.274 20.5396 12.274 20.5822 12.2655 20.6162Z" fill="#F3F3F3"/>
<path d="M7 12.2415V12.2329C7.27263 12.1137 7.53675 11.9859 7.80938 11.8666C8.1587 11.7047 8.50801 11.5514 8.85732 11.3895C9.12144 11.2702 9.39407 11.1424 9.65819 11.0231C10.0501 10.8442 10.4335 10.6738 10.8254 10.4949C11.0895 10.3756 11.3536 10.2563 11.6263 10.1285C11.8137 10.0433 12.0097 9.95814 12.1971 9.87295C12.2141 9.86443 12.2397 9.85591 12.2482 9.83887C12.2567 9.83887 12.2567 9.84739 12.2482 9.85591V15.266C12.2482 15.2916 12.2397 15.3171 12.2567 15.3342C12.2397 15.3597 12.2227 15.3342 12.2141 15.3256C12.1375 15.283 12.0608 15.2404 11.9841 15.1893C10.3398 14.2181 8.68693 13.2383 7.0426 12.267C7.03408 12.2585 7.01704 12.25 7 12.2415Z" fill="#C5C8D9"/>
<path d="M17.4795 13.2466H17.488C17.488 13.2636 17.471 13.2807 17.4625 13.2977C15.8948 15.5043 14.3272 17.7195 12.7595 19.9261C12.5976 20.1562 12.4272 20.3862 12.2654 20.6162C12.2568 20.6077 12.2568 20.5992 12.2568 20.5907V20.5396V16.4074V16.3308C12.6147 16.1178 12.964 15.9133 13.3218 15.7003C14.702 14.8824 16.0822 14.073 17.4539 13.2551C17.4625 13.2636 17.471 13.2551 17.4795 13.2466Z" fill="#C5C8D9"/>
<path d="M12.2573 9.8559V9.83886V9.78774V3.60234C12.2573 3.57678 12.2488 3.55974 12.2658 3.53418C13.9953 6.40536 15.7248 9.26803 17.4459 12.1392C17.4629 12.1648 17.4885 12.1989 17.497 12.2329C17.3777 12.1903 17.2669 12.1307 17.1562 12.0796C17.0199 12.0199 16.875 11.9518 16.7387 11.8921C16.6535 11.8495 16.5598 11.8155 16.4746 11.7729C16.3298 11.7047 16.1849 11.6451 16.0401 11.5769C15.9549 11.5428 15.8697 11.5002 15.7845 11.4576L15.2222 11.202C15.1285 11.1594 15.0347 11.1168 14.9325 11.0742L14.5236 10.8953C14.4384 10.8612 14.3532 10.8186 14.268 10.776L13.7056 10.5204C13.6119 10.4778 13.5182 10.4352 13.416 10.3926L13.007 10.2137C12.9133 10.1711 12.8281 10.1285 12.7344 10.0859C12.5725 10.0093 12.4106 9.93258 12.2402 9.86442C12.2658 9.8559 12.2573 9.8559 12.2573 9.8559Z" fill="#C5C8D9"/>
</g>
<defs>
<clipPath id="clip0_2570_592">
<rect width="24" height="24" fill="white" transform="translate(0 0.5)"/>
</clipPath>
</defs>
</svg>
