<svg width="24" height="25" viewBox="0 0 24 25" fill="none" xmlns="http://www.w3.org/2000/svg">
<g clip-path="url(#clip0_2570_685)">
<path d="M12 0.5C18.6274 0.5 24 5.87257 24 12.5C24 19.1274 18.6274 24.5 12 24.5C5.37257 24.5 0 19.1274 0 12.5C0 5.87257 5.37257 0.5 12 0.5Z" fill="#1A82FF"/>
<path d="M16.387 17.4414C15.3482 18.7141 13.8871 19.3505 12.0039 19.3505C10.1207 19.3505 8.65947 18.7141 7.62015 17.4414C6.58061 16.1681 6.06107 14.5221 6.06152 12.5036C6.06198 10.4851 6.58129 8.83937 7.61947 7.56645C8.65832 6.29308 10.1196 5.65651 12.0032 5.65674C13.8869 5.65697 15.3479 6.29354 16.3863 7.56645C17.4252 8.83914 17.9447 10.4849 17.945 12.5036C17.9452 14.5223 17.4259 16.1683 16.387 17.4414Z" fill="white"/>
<path d="M11.9823 16.6891C12.478 16.6891 12.8995 16.554 13.2467 16.2838C13.5939 16.0137 13.8453 15.6473 14.001 15.1846C14.1564 14.7218 14.2661 14.2781 14.3301 13.8537C14.3941 13.4292 14.4259 12.9792 14.4255 12.5035C14.4255 11.9179 14.39 11.3938 14.3192 10.9312L10.0479 15.3821C10.4428 16.253 11.0876 16.6886 11.9823 16.6891Z" fill="#1A82FF"/>
<path d="M12.0243 8.31787C11.5285 8.31787 11.107 8.45295 10.7598 8.72312C10.4126 8.99328 10.1612 9.35967 10.0055 9.82229C9.84917 10.2851 9.73946 10.7288 9.67637 11.1532C9.61237 11.5777 9.5806 12.0277 9.58106 12.5034C9.58106 12.8167 9.59112 13.1125 9.61123 13.3907L13.6851 9.14619C13.2894 8.59421 12.7358 8.3181 12.0243 8.31787Z" fill="#1A82FF"/>
<path d="M6.39371 16.7467L5.86914 16.2434L9.84697 12.0969L10.3715 12.6002L6.39371 16.7467ZM13.8886 12.4198L13.364 11.9165L17.3418 7.77002L17.8664 8.27333L13.8886 12.4198Z" fill="#1A82FF"/>
</g>
<defs>
<clipPath id="clip0_2570_685">
<rect width="24" height="24" fill="white" transform="translate(0 0.5)"/>
</clipPath>
</defs>
</svg>
