<svg width="24" height="25" viewBox="0 0 24 25" fill="none" xmlns="http://www.w3.org/2000/svg">
<g clip-path="url(#clip0_2570_650)">
<path d="M23.9783 12.496C23.9783 19.0906 18.6326 24.4363 12.038 24.4363C5.44357 24.4363 0.0976562 19.0906 0.0976562 12.496C0.0976562 5.90146 5.44357 0.555664 12.038 0.555664C18.6326 0.555664 23.9783 5.90146 23.9783 12.496Z" fill="#1BA27A"/>
<path d="M17.6422 6.57666H6.33594V9.30621H10.6243V13.3182H13.3538V9.30621H17.6422V6.57666Z" fill="white"/>
<path d="M12.0144 13.7456C8.46695 13.7456 5.59089 13.1842 5.59089 12.4915C5.59089 11.799 8.46683 11.2374 12.0144 11.2374C15.5619 11.2374 18.4378 11.799 18.4378 12.4915C18.4378 13.1842 15.5619 13.7456 12.0144 13.7456ZM19.227 12.7006C19.227 11.8074 15.9978 11.0835 12.0144 11.0835C8.03113 11.0835 4.80176 11.8074 4.80176 12.7006C4.80176 13.4871 7.30576 14.1424 10.6238 14.2876V20.0468H13.3532V14.2898C16.6968 14.1492 19.227 13.4911 19.227 12.7006Z" fill="white"/>
</g>
<defs>
<clipPath id="clip0_2570_650">
<rect width="24" height="24" fill="white" transform="translate(0 0.5)"/>
</clipPath>
</defs>
</svg>
