<svg width="24" height="25" viewBox="0 0 24 25" fill="none" xmlns="http://www.w3.org/2000/svg">
<g clip-path="url(#clip0_2570_632)">
<circle cx="12" cy="12.5" r="12" fill="#25292C"/>
<path d="M16.9489 5.5H18.9723L14.7614 10.5347C13.2364 12.357 10.764 12.357 9.23797 10.5347L5.02539 5.5H7.05047L10.2497 9.32458C10.7158 9.87933 11.344 10.1903 11.9985 10.1903C12.6529 10.1903 13.2811 9.87933 13.7472 9.32458L16.9489 5.5Z" fill="white"/>
<path d="M7.0248 19.4999H5L9.23828 14.4341C10.7632 12.6118 13.2357 12.6118 14.7617 14.4341L19 19.4999H16.9766L13.75 15.6443C13.2839 15.0895 12.6557 14.7785 12.0012 14.7785C11.3468 14.7785 10.7186 15.0895 10.2525 15.6443L7.0248 19.4999Z" fill="white"/>
</g>
<defs>
<clipPath id="clip0_2570_632">
<rect width="24" height="24" fill="white" transform="translate(0 0.5)"/>
</clipPath>
</defs>
</svg>
